<svg version="1.1" id="Capa_1" xmlns="http://www.w3.org/2000/svg" xmlns:xlink="http://www.w3.org/1999/xlink" x="0px" y="0px"
	 viewBox="0 0 50 50" style="enable-background:new 0 0 50 50;" xml:space="preserve">
<style type="text/css">
	.st0{fill:#FBF0ED;}
</style>
<path class="st0" d="M25,0C11.2,0,0,11.2,0,25s11.2,25,25,25s25-11.2,25-25S38.8,0,25,0z M39,34.5H11c-0.8,0-1.5-0.7-1.5-1.5
	s0.7-1.5,1.5-1.5h28c0.8,0,1.5,0.7,1.5,1.5S39.8,34.5,39,34.5z M39,26.5H11c-0.8,0-1.5-0.7-1.5-1.5s0.7-1.5,1.5-1.5h28
	c0.8,0,1.5,0.7,1.5,1.5S39.8,26.5,39,26.5z M39,18.5H11c-0.8,0-1.5-0.7-1.5-1.5s0.7-1.5,1.5-1.5h28c0.8,0,1.5,0.7,1.5,1.5
	S39.8,18.5,39,18.5z"/>
</svg>
