<?xml version="1.0" encoding="UTF-8"?>
<svg id="Capa_2" data-name="Capa 2" xmlns="http://www.w3.org/2000/svg" viewBox="0 0 273.48 274.36">
  <defs>
    <style>
      .cls-1 {
        fill: #6254a0;
      }

      .cls-1, .cls-2 {
        stroke-width: 0px;
      }

      .cls-2 {
        fill: #fbf0ed;
      }
    </style>
  </defs>
  <g id="Capa_1-2" data-name="Capa 1">
    <g>
      <g>
        <g>
          <rect class="cls-2" x="5" y="5" width="263.48" height="264.36"/>
          <path class="cls-1" d="m263.48,10v254.36H10V10h253.48m10-10H0v274.36h273.48V0h0Z"/>
        </g>
        <rect class="cls-1" x="0" y="2.65" width="273.48" height="28.35"/>
      </g>
      <path class="cls-1" d="m225.91,133.47v83.6h-35.61v-72.91s0,.01-.02.01v-16.07c0-2.44-.46-4.76-1.37-6.94-.92-2.18-2.21-4.1-3.87-5.76-1.66-1.66-3.58-2.95-5.76-3.87-2.18-.91-4.49-1.37-6.94-1.37s-4.73.46-6.87,1.37c-2.14.92-4.02,2.21-5.63,3.87-1.62,1.66-2.88,3.58-3.8,5.76-.92,2.18-1.37,4.5-1.37,6.94v25.19h.01v63.78h-35.74v-58.98h-.02v-29.99c0-2.44-.46-4.76-1.37-6.94-.92-2.18-2.21-4.1-3.87-5.76-1.66-1.66-3.58-2.95-5.76-3.87-2.18-.91-4.5-1.37-6.94-1.37s-4.73.46-6.87,1.37c-2.14.92-4.02,2.21-5.63,3.87-1.62,1.66-2.88,3.58-3.8,5.76-.92,2.18-1.37,4.5-1.37,6.94v28.83h.01v60.14h-35.74v-61.05h-.02v-79.12h8.64l9.69,10.74c4.98-4.19,10.45-7.44,16.43-9.76,5.98-2.31,12.2-3.47,18.66-3.47s12.94,1.23,19.18,3.67c6.24,2.45,11.72,6.68,16.44,12.7,2.18-2.97,4.67-5.5,7.46-7.59,2.79-2.1,5.74-3.8,8.84-5.11,3.1-1.31,6.3-2.25,9.62-2.81,3.32-.57,6.59-.86,9.82-.86,7.42,0,14.38,1.4,20.89,4.19,6.5,2.8,12.17,6.62,17.02,11.46,4.84,4.85,8.66,10.54,11.46,17.09,2.79,6.55,4.19,13.53,4.19,20.95v5.37h.01Z"/>
    </g>
  </g>
</svg>