<svg xmlns="http://www.w3.org/2000/svg" viewBox="0 0 174 174"><defs><style>.cls-1{fill:#fff;}</style></defs><title>instaRecurso 2</title><g id="Capa_2" data-name="Capa 2"><g id="Capa_1-2" data-name="Capa 1"><path class="cls-1" d="M88.11,0A87,87,0,1,0,174,88.11,87,87,0,0,0,88.11,0ZM141,105.58a35.66,35.66,0,0,1-35.65,35.47L68.42,141A35.66,35.66,0,0,1,33,105.3l.1-36.88A35.66,35.66,0,0,1,68.7,33l36.88.1A35.66,35.66,0,0,1,141.05,68.7Z"/><path class="cls-1" d="M103.17,40,71.07,40A31,31,0,0,0,40,70.83L40,102.93a31,31,0,0,0,30.87,31l32.1.08a31,31,0,0,0,31-30.87l.08-32.1A31,31,0,0,0,103.17,40Zm-17,75A28.5,28.5,0,1,1,115,86.86,28.52,28.52,0,0,1,86.14,115Zm29.92-52.92a6,6,0,1,1,6-6A6,6,0,0,1,116.06,62.08Z"/><circle class="cls-1" cx="86.5" cy="86.5" r="21.5"/></g></g></svg>