<svg xmlns="http://www.w3.org/2000/svg" viewBox="0 0 174 174"><defs><style>.cls-1{fill:#fff;}</style></defs><title>waRecurso 5</title><g id="Capa_2" data-name="Capa 2"><g id="Capa_1-2" data-name="Capa 1"><path class="cls-1" d="M87.65,0A87,87,0,1,0,174,87.65,87,87,0,0,0,87.65,0Zm18.46,143.07c-30.69,8.46-49.34-6.38-49.34-6.38l-23.25,6.58L40,120.91C28.76,103.26,22.18,80,43.51,51.1s74.36-30.91,94,5.33S136.8,134.61,106.11,143.07Z"/><path class="cls-1" d="M49.85,57.59c-18.07,24.49-12.5,44.19-3,59.15l-5.47,18.94,19.7-5.58s15.8,12.58,41.8,5.41,43.25-42.7,26.61-73.41S67.92,33.1,49.85,57.59Zm62,59.14c-9.23,5.07-30.25-3.28-44.58-19.2s-12.66-25.16-10.16-31,10.76-9.4,13.42-6.75c3.37,3.35,5.06,7.54,5.92,13.42.92,6.33-4.8,6.68-4.17,10.09C74,92.47,95,107.54,98.34,101.65s9.22-4.23,16.79-1.73S121,111.67,111.82,116.73Z"/></g></g></svg>