<?xml version="1.0" encoding="utf-8"?>
<!-- Generator: Adobe Illustrator 24.0.2, SVG Export Plug-In . SVG Version: 6.00 Build 0)  -->
<svg version="1.1" xmlns="http://www.w3.org/2000/svg" xmlns:xlink="http://www.w3.org/1999/xlink" x="0px" y="0px"
	 viewBox="0 0 577.1 95.5" style="enable-background:new 0 0 577.1 95.5;" xml:space="preserve">
<style type="text/css">
	.st0{fill:#FBAE17;}
	#L{
		animation:
		animarup 2s ease 1s infinite alternate;
	}
	#A{
		animation:
		animarup 2s ease 1.2s infinite alternate;
	}
	#S{
		animation:
		animarup 2s ease 1.4s infinite alternate;
	}
	#A2{
		animation:
		animarup 2s ease 1.6s infinite alternate;
	}
	#N{
		animation:
		animarup 2s ease 1.8s infinite alternate;
	}
	#D{
		animation:
		animarup 2s ease 2s infinite alternate;
	}
	#U{
		animation:
		animarup 2s ease 2.2s infinite alternate;
	}
	#C{
		animation:
		animarup 2s ease 2.4s infinite alternate;
	}
	#H{
		animation:
		animarup 2s ease 2.6s infinite alternate;
	}
	#E{
		animation:
		animarup 2s ease 2.8s infinite alternate;
	}
	#R{
		animation:
		animarup 2s ease 3s infinite alternate;
	}
	#I{
		animation:
		animarup 2s ease 3.2s infinite alternate;
	}
	#E2{
		animation:
		animarup 2s ease 3.4s infinite alternate;
	}

	@keyframes animarup{
		0%{
			opacity:0;
			transform: translateY(80%);
		}
		40%{
			opacity:1;
			transform: translateY(0);
		}
		100%{
			opacity:1;
			transform: translateY(0%);
		}
	}
</style>
<g id="E2">
	<polygon class="st0" points="548,0.2 548,95.5 577.1,95.5 577.1,79.6 558.6,79.6 558.6,42.6 577.1,42.6 577.1,32 558.6,32 
		558.6,16.1 577.1,16.1 577.1,0.2 	"/>
</g>
<g id="I">
	<polygon class="st0" points="524.1,0.2 524.1,2.5 524.1,95.5 537.4,95.5 537.4,0.2 	"/>
</g>
<g id="R">
	<path class="st0" d="M503,47.9v-7.9c0,0,7.9,0,7.9-7.9s0-10.6,0-18.5S508.3,0.2,503,0.2s-29.1,0-29.1,0v95.3h13.2V47.9h5.3
		L503,95.5h13.2L503,47.9z M495,29.3c0,0,0,7.9-10.6,5.3V13.5H495V29.3z"/>
</g>
<g id="E">
	<polygon class="st0" points="436.8,0.2 436.8,95.5 465.9,95.5 465.9,79.6 447.4,79.6 447.4,42.6 465.9,42.6 465.9,32 447.4,32 
		447.4,16.1 465.9,16.1 465.9,0.2 	"/>
</g>
<g id="H">
	<polygon class="st0" points="386.5,0.2 386.5,95.5 399.7,95.5 399.7,47.9 410.3,47.9 410.3,95.5 423.5,95.5 423.5,0.2 410.3,0.2 
		410.3,37.3 397.1,37.3 397.1,0.2 	"/>
</g>
<g id="C">
	<path class="st0" d="M338.8,10.8c0,0,0,82.1,0,74.1s0,10.6,7.9,10.6c7.9,0,13.2,0,21.2,0s7.9-5.3,7.9-13.2s0-13.2,0-13.2h-13.2
		c0,0,2.6,13.2-5.3,13.2c-7.9,0-5.3-13.2-5.3-13.2V13.5h10.6v13.2h13.2c0,0,0-2.6,0-13.2s-2.6-13.2-10.6-13.2s-26.5,0-18.5,0
		C354.7,0.2,338.8-2.4,338.8,10.8z"/>
</g>
<g id="U">
	<path class="st0" d="M296.5,0.2c0,0,0,71.5,0,82.1s-2.6,13.2,7.9,13.2c10.6,0,7.9,0,15.9,0s7.9-2.6,7.9-13.2s0-82.1,0-82.1h-10.6
		v79.4c0,0,0,2.6-5.3,2.6s-5.3-2.6-5.3-2.6V0.2H296.5z"/>
</g>
<g id="D">
	<path class="st0" d="M278,0.2c-5.3,0-31.8,0-31.8,0v95.3c0,0,23.8,0,29.1,0s10.6-5.3,10.6-10.6s0-66.2,0-74.1S283.2,0.2,278,0.2z
		M270,79.6c0,2.6,0,2.6-10.6,2.6V13.5c0,0,5.3,0,7.9,0c2.6,0,2.6,0,2.6,2.6S270,77,270,79.6z"/>
</g>
<g id="N">
	<polygon class="st0" points="201.2,95.5 214.4,95.5 214.4,47.9 222.4,95.5 235.6,95.5 235.6,0.2 222.4,0.2 222.4,47.9 214.4,0.2 
		201.2,0.2 	"/>
</g>
<g id="A2">
	<path class="st0" d="M190.6,95.5l-5.3-95.3h-23.8l-7.9,95.3h13.2V77h10.6v18.5H190.6z M169.4,69l2.6-55.6h2.6l2.6,55.6H169.4z"/>
</g>
<g id="S">
	<path class="st0" d="M135,29.3h10.6c0,0,0-15.9,0-21.2s-2.6-7.9-7.9-7.9c-5.3,0-10.6,0-15.9,0s-7.9,2.6-7.9,13.2s0,21.2,0,26.5
		c2.6,7.9,18.5,21.2,18.5,21.2v21.2h-7.9V63.7h-10.6c0,0,0,18.5,0,23.8s2.6,7.9,7.9,7.9s10.6,0,15.9,0c5.3,0,7.9-2.6,7.9-10.6
		s0-26.5,0-29.1S127.1,37.3,127.1,32s0-18.5,0-18.5h7.9V29.3z"/>
</g>
<g id="A">
	<path class="st0" d="M68.8,95.5L63.5,0.2H39.7l-7.9,95.3H45V77h10.6v18.5H68.8z M47.6,69l2.6-55.6h2.6L55.6,69H47.6z"/>
</g>
<g id="L">
	<polygon class="st0" points="0,0.2 0,95.5 29.1,95.5 29.1,82.3 15.9,84.9 15.9,0.2 	"/>
</g>
</svg>

