<svg xmlns="http://www.w3.org/2000/svg" viewBox="0 0 230.96 238.64"><defs><style>.cls-1{fill:#fff;stroke-miterlimit:10;stroke-width:1.42px;}.cls-1,.cls-3{stroke:#000;stroke-linecap:round;}.cls-2{fill:#ffa100;}.cls-3{fill:none;stroke-linejoin:round;stroke-width:3.55px;}</style></defs><title>LOGUITORecurso 8</title><g id="Capa_2" data-name="Capa 2"><g id="Capa_1-2" data-name="Capa 1"><path class="cls-1" d="M3.51,102s3,40.69-2.8,66.85c0,26.16,8.86,81.37,107.65,66.67s122-72.87,121.89-110.65-35-58.07-23.41-90.06c-11.57,4.88-14.49,23.28-11.57,32C199.6,78,192.4,90,177.85,75.51s-37.8-8.66-43.61-5.74-20.34,0-20.36-11.59a71,71,0,0,1,2.87-20.35s-11.62,2.92-20.29,32c-2.88,14.54-26.13,17.49-26.16,3,2.89-14.53,5.78-23.26-5.88-40.68C61.53,37.92,61.54,46.64,47,52.48c-8.71,8.73-17.4,23.28-17.36,49.44,0,5.81-2.87,17.44-11.6,11.64S9.33,110.67,3.51,102Z"/><path class="cls-2" d="M70,143.3S54,133,45.44,133.74,29.8,137.32,24.85,148c0,0-3.55,5,1.44,12.08-2.84,4.27-5.67,11.39-1.39,19.2,9.25,5,9.25,6.38,9.25,6.38s-.69,12.09,15.67,20.59,50.48,4.89,50.48,4.89,45.47-14.29,47.6-18.56c9.94-5,38.35-21.39,38.33-31.34s8-11.79,8-11.79,7.6-6-2.36-11c-4.27-3.55-2.85-7.1-2.85-7.1s10.65-7.84-2.16-13.51c-12.81-7.08-32.93-18-33.87-3.26l-.25,2.61s-20.64-12.76-25.61-11.33-7.09,10-7.09,10L103,110.9,92.33,118l-.1,2.45,7.93,8.2v1.42L73.85,119.48l-11.37,2.86-5.68,5L59,135.14Z"/><path class="cls-3" d="M29.49,162.56s-11.36-8.31-2.67-19.95c13.06-16.84,31-8.45,42.08-.32a.66.66,0,0,0,.84-1,88.83,88.83,0,0,0-13.34-10,.66.66,0,0,1-.25-.87c11.4-21.64,39.71-2.65,52,7.12a.66.66,0,0,0,.89-1,153.59,153.59,0,0,0-17.82-16.89.67.67,0,0,1-.11-.92c14.07-17.92,35.47,2.82,43.21,11.5a.65.65,0,0,0,1-.79c-2.05-3.21-6.33-8.33-15.24-15.77a.68.68,0,0,1-.22-.72c5.2-16.47,30.63,3.5,38.36,10.05a.66.66,0,0,0,1-.85,51.79,51.79,0,0,0-7.29-8.61.7.7,0,0,1-.2-.51c.52-11.18,32-2.56,40.7,8.95s-34.83,32-95.84,46.66c-55.36,11.17-65.92-4.12-66.79-5.59a.61.61,0,0,0-.19-.2c-.61-.4-3.29-1.77-5.65,2.94a.58.58,0,0,0,0,.14c-5.66,20.18,23,23.11,40.47,20.25a.62.62,0,0,1,.49.13c14.35,11.14,34.17-2.79,40.23-5.94a.62.62,0,0,1,.48,0c16.69,5.37,35.91-5.08,37.42-11a.66.66,0,0,1,.84-.49c7.25,2.13,14.28.35,14.36-2a.74.74,0,0,1,1-.64c5.2,1.24,11.56-3.12,10.56-7.94a.67.67,0,0,1,.87-.77c4.36,1.65,6.79-.1,7.28-.52a.54.54,0,0,0,.14-.16c.38-.69,3.27-5.32,8.67.06,5.82,5.81-14.47,32-81.25,52.44l-.08,0C38.58,221.05,34.51,186,34.51,186"/><path class="cls-3" d="M186.55,136s25.45,4.62-.68,19.2"/><path class="cls-1" d="M15.11,87.41S.54,70,23.77,52.52a21.68,21.68,0,0,0,8.7-8.74,34.58,34.58,0,0,1-5.78,17.45C20.89,70,15.09,75.78,15.11,87.41Z"/><path class="cls-1" d="M70.2,11.75s0,14.53,5.84,17.43C79,37.89,81.88,43.7,79,49.52c8.71-5.83,11.61-11.65,5.77-26.17C76,17.55,76,17.55,70.2,11.75Z"/><path class="cls-1" d="M128.35,20.37s-4.82,12.71.11,24.37a33.26,33.26,0,0,1-3,16.32s14.52-2.93,8.68-20.35S128.35,20.37,128.35,20.37Z"/><path class="cls-1" d="M192.26,2.82S191,13.36,175.35,31.87c-12,19.21,2.49,37.83,2.49,37.83s8.23-5.86,7.49-25.05c0-8.72,15.7-9.87,12.76-27.3Z"/></g></g></svg>