<svg xmlns="http://www.w3.org/2000/svg" viewBox="0 0 601.24 580.26"><defs><style>.cls-1{fill:#fff;}</style></defs><title>MICCARecurso 1</title><g id="Capa_2" data-name="Capa 2"><g id="Capa_1-2" data-name="Capa 1"><path class="cls-1" d="M218.69,442.42c133.78-10.13,117.57-154,56.75-178.38-16.21-6.08-40.54-10.13-68.91,12.16,0,0,60.81-16.21,77,34.46,16.14,50.44,15.84,100.19-79.9,132A126.21,126.21,0,0,0,218.69,442.42Z"/><path class="cls-1" d="M587.61,233.64c-6.08-8.11-26.35-20.27-54.73-20.27,0,0-3.18.15-8.55.9a308.07,308.07,0,0,0-9.45-33c17.48-6.74,33.94-15.83,38.27-26.65,8.11-20.27-4.06-30.4-30.41-34.46-14.84-2.2-27.42-1.4-38,1.07C443.57,61.07,385,31.63,354.5,18.77,316,2.55,190.31-21.77,105.17,39S-14.94,190.26,5.85,290.39c15.21,78.87,99.32,184.46,196.44,152.7a114.35,114.35,0,0,0,14.37,9.47c58.78,32.43,148,8.1,174.33-58.79S395,262,318,233.64,206.53,276.2,206.53,276.2s30.4-34.46,56.75-34.46S374.77,262,364.63,341.07c-9.36,73.06-67.21,130.53-162.34,102l1.36-.45-2.08-.1c-51.47-40-88.45-131.9-47.75-217,44.6-93.25,133.79-121.62,133.79-121.62-24.33-12.17-89.19-16.22-152,50.67S68.69,387.69,178.15,434.31a230.92,230.92,0,0,0,22.17,8.17C76.48,433.92-5.66,244.49,91,134.31,192.34,18.77,287.61,33,348.42,43.09,386.5,49.44,436.49,77.25,472.54,125a80.94,80.94,0,0,0-34.93,27.53c-18.25,24.33,4.05,44.6,36.48,40.55A274,274,0,0,0,505,184.78a232.27,232.27,0,0,1,8.9,31.3c-16,3.27-39.69,10.36-62.06,25.66-38.52,26.36-50.68,62.84-44.6,93.25s36.49,54.73,75,44.59c3.35-.88,6.63-1.82,9.89-2.8-19.46,38.79-45.69,68.71-64.62,90-41.41,46.51-113.41,91.51-237.16,62.83C81.05,504.27,38.06,405.26,9.9,351.2c24.16,99.06,89.19,229.06,253.38,229.06S494.36,450.53,512.61,412c4.85-10.25,10.12-27.25,14.09-48.66a165.07,165.07,0,0,0,52.8-40.53C605.85,292.42,607.88,260,587.61,233.64ZM543,134.31c12.17,8.11,6.08,24.33-10.13,32.43S513,175.91,513,175.91s0-.08-.08-.18c-.11-.29-.2-.59-.31-.88a251.59,251.59,0,0,0-20.15-41.67S530.86,126.21,543,134.31ZM421.39,335c-12.16-54.73,50.68-99.33,95.27-103.38,7.72,54.05-3.4,100.28-21.33,138.49C490.3,373.51,433.55,389.71,421.39,335Z"/></g></g></svg>